<svg xmlns="http://www.w3.org/2000/svg" xmlns:xlink="http://www.w3.org/1999/xlink" width="500" zoomAndPan="magnify" viewBox="0 0 375 149.999998" height="200" preserveAspectRatio="xMidYMid meet" version="1.0"><defs><g/><clipPath id="af9371a4c3"><rect x="0" width="349" y="0" height="98"/></clipPath><clipPath id="d3d3345db6"><path d="M 7.699219 89.839844 L 367.332031 89.839844 L 367.332031 98.105469 L 7.699219 98.105469 Z M 7.699219 89.839844 " clip-rule="nonzero"/></clipPath><clipPath id="ff837d61f9"><path d="M 11.835938 89.839844 L 363.164062 89.839844 C 364.261719 89.839844 365.3125 90.273438 366.089844 91.050781 C 366.863281 91.824219 367.300781 92.875 367.300781 93.972656 C 367.300781 95.070312 366.863281 96.121094 366.089844 96.894531 C 365.3125 97.671875 364.261719 98.105469 363.164062 98.105469 L 11.835938 98.105469 C 10.738281 98.105469 9.6875 97.671875 8.910156 96.894531 C 8.136719 96.121094 7.699219 95.070312 7.699219 93.972656 C 7.699219 92.875 8.136719 91.824219 8.910156 91.050781 C 9.6875 90.273438 10.738281 89.839844 11.835938 89.839844 Z M 11.835938 89.839844 " clip-rule="nonzero"/></clipPath><clipPath id="7bddc17af4"><path d="M 0.699219 0.839844 L 360.332031 0.839844 L 360.332031 9.105469 L 0.699219 9.105469 Z M 0.699219 0.839844 " clip-rule="nonzero"/></clipPath><clipPath id="bee22e0c6e"><path d="M 4.835938 0.839844 L 356.164062 0.839844 C 357.261719 0.839844 358.3125 1.273438 359.089844 2.050781 C 359.863281 2.824219 360.300781 3.875 360.300781 4.972656 C 360.300781 6.070312 359.863281 7.121094 359.089844 7.894531 C 358.3125 8.671875 357.261719 9.105469 356.164062 9.105469 L 4.835938 9.105469 C 3.738281 9.105469 2.6875 8.671875 1.910156 7.894531 C 1.136719 7.121094 0.699219 6.070312 0.699219 4.972656 C 0.699219 3.875 1.136719 2.824219 1.910156 2.050781 C 2.6875 1.273438 3.738281 0.839844 4.835938 0.839844 Z M 4.835938 0.839844 " clip-rule="nonzero"/></clipPath><clipPath id="43138d7284"><rect x="0" width="361" y="0" height="10"/></clipPath><clipPath id="2b076848cb"><rect x="0" width="221" y="0" height="41"/></clipPath></defs><g transform="matrix(1, 0, 0, 1, 13, 6)"><g clip-path="url(#af9371a4c3)"><g fill="#ffffff" fill-opacity="1"><g transform="translate(1.100646, 76.035857)"><g><path d="M 47.125 0 L 34.921875 0 L 21.65625 -21.34375 L 17.109375 -18.078125 L 17.109375 0 L 6.375 0 L 6.375 -50.65625 L 17.109375 -50.65625 L 17.109375 -27.46875 C 17.828125 -28.46875 18.53125 -29.460938 19.21875 -30.453125 C 19.914062 -31.441406 20.625 -32.4375 21.34375 -33.4375 L 35.0625 -50.65625 L 46.984375 -50.65625 L 29.3125 -28.234375 Z M 47.125 0 "/></g></g></g><g fill="#ffffff" fill-opacity="1"><g transform="translate(48.215324, 76.035857)"><g><path d="M 52.34375 -25.390625 C 52.34375 -21.492188 51.859375 -17.941406 50.890625 -14.734375 C 49.921875 -11.535156 48.445312 -8.78125 46.46875 -6.46875 C 44.5 -4.164062 42 -2.394531 38.96875 -1.15625 C 35.945312 0.0703125 32.367188 0.6875 28.234375 0.6875 C 24.097656 0.6875 20.515625 0.0703125 17.484375 -1.15625 C 14.460938 -2.394531 11.960938 -4.164062 9.984375 -6.46875 C 8.015625 -8.78125 6.546875 -11.539062 5.578125 -14.75 C 4.609375 -17.96875 4.125 -21.539062 4.125 -25.46875 C 4.125 -30.707031 4.984375 -35.269531 6.703125 -39.15625 C 8.421875 -43.050781 11.070312 -46.070312 14.65625 -48.21875 C 18.238281 -50.375 22.789062 -51.453125 28.3125 -51.453125 C 33.800781 -51.453125 38.316406 -50.375 41.859375 -48.21875 C 45.410156 -46.070312 48.046875 -43.046875 49.765625 -39.140625 C 51.484375 -35.242188 52.34375 -30.660156 52.34375 -25.390625 Z M 15.375 -25.390625 C 15.375 -21.859375 15.816406 -18.816406 16.703125 -16.265625 C 17.597656 -13.710938 18.992188 -11.75 20.890625 -10.375 C 22.785156 -9 25.234375 -8.3125 28.234375 -8.3125 C 31.285156 -8.3125 33.753906 -9 35.640625 -10.375 C 37.535156 -11.75 38.914062 -13.710938 39.78125 -16.265625 C 40.65625 -18.816406 41.09375 -21.859375 41.09375 -25.390625 C 41.09375 -30.703125 40.097656 -34.882812 38.109375 -37.9375 C 36.117188 -40.988281 32.851562 -42.515625 28.3125 -42.515625 C 25.28125 -42.515625 22.8125 -41.828125 20.90625 -40.453125 C 19 -39.078125 17.597656 -37.113281 16.703125 -34.5625 C 15.816406 -32.007812 15.375 -28.953125 15.375 -25.390625 Z M 15.375 -25.390625 "/></g></g></g><g fill="#ffffff" fill-opacity="1"><g transform="translate(104.683651, 76.035857)"><g><path d="M 46.109375 -50.65625 L 28.890625 0 L 17.1875 0 L 0 -50.65625 L 10.84375 -50.65625 L 20.375 -20.515625 C 20.53125 -20.003906 20.789062 -19.050781 21.15625 -17.65625 C 21.53125 -16.257812 21.90625 -14.78125 22.28125 -13.21875 C 22.664062 -11.65625 22.929688 -10.367188 23.078125 -9.359375 C 23.210938 -10.367188 23.457031 -11.644531 23.8125 -13.1875 C 24.175781 -14.738281 24.535156 -16.210938 24.890625 -17.609375 C 25.242188 -19.015625 25.503906 -19.984375 25.671875 -20.515625 L 35.265625 -50.65625 Z M 46.109375 -50.65625 "/></g></g></g><g fill="#ffffff" fill-opacity="1"><g transform="translate(150.793677, 76.035857)"><g><path d="M 52.34375 -25.390625 C 52.34375 -21.492188 51.859375 -17.941406 50.890625 -14.734375 C 49.921875 -11.535156 48.445312 -8.78125 46.46875 -6.46875 C 44.5 -4.164062 42 -2.394531 38.96875 -1.15625 C 35.945312 0.0703125 32.367188 0.6875 28.234375 0.6875 C 24.097656 0.6875 20.515625 0.0703125 17.484375 -1.15625 C 14.460938 -2.394531 11.960938 -4.164062 9.984375 -6.46875 C 8.015625 -8.78125 6.546875 -11.539062 5.578125 -14.75 C 4.609375 -17.96875 4.125 -21.539062 4.125 -25.46875 C 4.125 -30.707031 4.984375 -35.269531 6.703125 -39.15625 C 8.421875 -43.050781 11.070312 -46.070312 14.65625 -48.21875 C 18.238281 -50.375 22.789062 -51.453125 28.3125 -51.453125 C 33.800781 -51.453125 38.316406 -50.375 41.859375 -48.21875 C 45.410156 -46.070312 48.046875 -43.046875 49.765625 -39.140625 C 51.484375 -35.242188 52.34375 -30.660156 52.34375 -25.390625 Z M 15.375 -25.390625 C 15.375 -21.859375 15.816406 -18.816406 16.703125 -16.265625 C 17.597656 -13.710938 18.992188 -11.75 20.890625 -10.375 C 22.785156 -9 25.234375 -8.3125 28.234375 -8.3125 C 31.285156 -8.3125 33.753906 -9 35.640625 -10.375 C 37.535156 -11.75 38.914062 -13.710938 39.78125 -16.265625 C 40.65625 -18.816406 41.09375 -21.859375 41.09375 -25.390625 C 41.09375 -30.703125 40.097656 -34.882812 38.109375 -37.9375 C 36.117188 -40.988281 32.851562 -42.515625 28.3125 -42.515625 C 25.28125 -42.515625 22.8125 -41.828125 20.90625 -40.453125 C 19 -39.078125 17.597656 -37.113281 16.703125 -34.5625 C 15.816406 -32.007812 15.375 -28.953125 15.375 -25.390625 Z M 15.375 -25.390625 "/></g></g></g><g fill="#ffffff" fill-opacity="1"><g transform="translate(207.262004, 76.035857)"><g><path d="M 47.125 0 L 34.921875 0 L 21.65625 -21.34375 L 17.109375 -18.078125 L 17.109375 0 L 6.375 0 L 6.375 -50.65625 L 17.109375 -50.65625 L 17.109375 -27.46875 C 17.828125 -28.46875 18.53125 -29.460938 19.21875 -30.453125 C 19.914062 -31.441406 20.625 -32.4375 21.34375 -33.4375 L 35.0625 -50.65625 L 46.984375 -50.65625 L 29.3125 -28.234375 Z M 47.125 0 "/></g></g></g><g fill="#ffffff" fill-opacity="1"><g transform="translate(254.376682, 76.035857)"><g><path d="M 37.375 0 L 33.703125 -12.0625 L 15.25 -12.0625 L 11.578125 0 L 0 0 L 17.875 -50.859375 L 31 -50.859375 L 48.953125 0 Z M 31.140625 -21.0625 L 27.46875 -32.84375 C 27.238281 -33.625 26.929688 -34.632812 26.546875 -35.875 C 26.171875 -37.113281 25.789062 -38.375 25.40625 -39.65625 C 25.03125 -40.9375 24.726562 -42.050781 24.5 -43 C 24.257812 -42.050781 23.9375 -40.875 23.53125 -39.46875 C 23.132812 -38.070312 22.75 -36.75 22.375 -35.5 C 22.007812 -34.257812 21.742188 -33.375 21.578125 -32.84375 L 17.953125 -21.0625 Z M 31.140625 -21.0625 "/></g></g></g><g fill="#ffffff" fill-opacity="1"><g transform="translate(303.327446, 76.035857)"><g><path d="M 22.546875 -50.65625 C 29.085938 -50.65625 33.859375 -49.25 36.859375 -46.4375 C 39.859375 -43.632812 41.359375 -39.773438 41.359375 -34.859375 C 41.359375 -32.640625 41.023438 -30.519531 40.359375 -28.5 C 39.691406 -26.476562 38.597656 -24.679688 37.078125 -23.109375 C 35.566406 -21.535156 33.550781 -20.289062 31.03125 -19.375 C 28.519531 -18.46875 25.414062 -18.015625 21.71875 -18.015625 L 17.109375 -18.015625 L 17.109375 0 L 6.375 0 L 6.375 -50.65625 Z M 22 -41.84375 L 17.109375 -41.84375 L 17.109375 -26.8125 L 20.65625 -26.8125 C 22.65625 -26.8125 24.394531 -27.078125 25.875 -27.609375 C 27.351562 -28.140625 28.492188 -28.96875 29.296875 -30.09375 C 30.109375 -31.226562 30.515625 -32.6875 30.515625 -34.46875 C 30.515625 -36.96875 29.820312 -38.820312 28.4375 -40.03125 C 27.050781 -41.238281 24.90625 -41.84375 22 -41.84375 Z M 22 -41.84375 "/></g></g></g></g></g><g clip-path="url(#d3d3345db6)"><g clip-path="url(#ff837d61f9)"><g transform="matrix(1, 0, 0, 1, 7, 89)"><g clip-path="url(#43138d7284)"><g clip-path="url(#7bddc17af4)"><g clip-path="url(#bee22e0c6e)"><path fill="#007bff" d="M 0.699219 0.839844 L 360.296875 0.839844 L 360.296875 9.105469 L 0.699219 9.105469 Z M 0.699219 0.839844 " fill-opacity="1" fill-rule="nonzero"/></g></g></g></g></g></g><g transform="matrix(1, 0, 0, 1, 79, 95)"><g clip-path="url(#2b076848cb)"><g fill="#ffffff" fill-opacity="1"><g transform="translate(0.752813, 30.72193)"><g><path d="M 19.6875 0 L 14.59375 0 L 9.046875 -8.921875 L 7.15625 -7.5625 L 7.15625 0 L 2.65625 0 L 2.65625 -21.15625 L 7.15625 -21.15625 L 7.15625 -11.484375 L 8.921875 -13.96875 L 14.640625 -21.15625 L 19.625 -21.15625 L 12.25 -11.796875 Z M 19.6875 0 "/></g></g></g><g fill="#ffffff" fill-opacity="1"><g transform="translate(24.883234, 30.72193)"><g><path d="M 5.828125 -8.125 C 5.828125 -6.519531 6.085938 -5.304688 6.609375 -4.484375 C 7.140625 -3.660156 8 -3.25 9.1875 -3.25 C 10.363281 -3.25 11.207031 -3.65625 11.71875 -4.46875 C 12.238281 -5.289062 12.5 -6.507812 12.5 -8.125 C 12.5 -9.71875 12.238281 -10.914062 11.71875 -11.71875 C 11.195312 -12.519531 10.34375 -12.921875 9.15625 -12.921875 C 7.976562 -12.921875 7.128906 -12.519531 6.609375 -11.71875 C 6.085938 -10.925781 5.828125 -9.726562 5.828125 -8.125 Z M 17.015625 -8.125 C 17.015625 -5.488281 16.320312 -3.425781 14.9375 -1.9375 C 13.550781 -0.445312 11.613281 0.296875 9.125 0.296875 C 7.570312 0.296875 6.203125 -0.0390625 5.015625 -0.71875 C 3.828125 -1.40625 2.914062 -2.382812 2.28125 -3.65625 C 1.644531 -4.9375 1.328125 -6.425781 1.328125 -8.125 C 1.328125 -10.757812 2.015625 -12.8125 3.390625 -14.28125 C 4.773438 -15.75 6.71875 -16.484375 9.21875 -16.484375 C 10.769531 -16.484375 12.140625 -16.144531 13.328125 -15.46875 C 14.515625 -14.789062 15.425781 -13.820312 16.0625 -12.5625 C 16.695312 -11.300781 17.015625 -9.820312 17.015625 -8.125 Z M 17.015625 -8.125 "/></g></g></g><g fill="#ffffff" fill-opacity="1"><g transform="translate(47.682199, 30.72193)"><g><path d="M 6.171875 0 L 0 -16.1875 L 4.609375 -16.1875 L 7.75 -6.96875 C 8.09375 -5.789062 8.304688 -4.679688 8.390625 -3.640625 L 8.484375 -3.640625 C 8.523438 -4.566406 8.738281 -5.675781 9.125 -6.96875 L 12.25 -16.1875 L 16.859375 -16.1875 L 10.703125 0 Z M 6.171875 0 "/></g></g></g><g fill="#ffffff" fill-opacity="1"><g transform="translate(68.990519, 30.72193)"><g><path d="M 5.828125 -8.125 C 5.828125 -6.519531 6.085938 -5.304688 6.609375 -4.484375 C 7.140625 -3.660156 8 -3.25 9.1875 -3.25 C 10.363281 -3.25 11.207031 -3.65625 11.71875 -4.46875 C 12.238281 -5.289062 12.5 -6.507812 12.5 -8.125 C 12.5 -9.71875 12.238281 -10.914062 11.71875 -11.71875 C 11.195312 -12.519531 10.34375 -12.921875 9.15625 -12.921875 C 7.976562 -12.921875 7.128906 -12.519531 6.609375 -11.71875 C 6.085938 -10.925781 5.828125 -9.726562 5.828125 -8.125 Z M 17.015625 -8.125 C 17.015625 -5.488281 16.320312 -3.425781 14.9375 -1.9375 C 13.550781 -0.445312 11.613281 0.296875 9.125 0.296875 C 7.570312 0.296875 6.203125 -0.0390625 5.015625 -0.71875 C 3.828125 -1.40625 2.914062 -2.382812 2.28125 -3.65625 C 1.644531 -4.9375 1.328125 -6.425781 1.328125 -8.125 C 1.328125 -10.757812 2.015625 -12.8125 3.390625 -14.28125 C 4.773438 -15.75 6.71875 -16.484375 9.21875 -16.484375 C 10.769531 -16.484375 12.140625 -16.144531 13.328125 -15.46875 C 14.515625 -14.789062 15.425781 -13.820312 16.0625 -12.5625 C 16.695312 -11.300781 17.015625 -9.820312 17.015625 -8.125 Z M 17.015625 -8.125 "/></g></g></g><g fill="#ffffff" fill-opacity="1"><g transform="translate(91.789484, 30.72193)"><g><path d="M 6.171875 0 L 0 -16.1875 L 4.609375 -16.1875 L 7.75 -6.96875 C 8.09375 -5.789062 8.304688 -4.679688 8.390625 -3.640625 L 8.484375 -3.640625 C 8.523438 -4.566406 8.738281 -5.675781 9.125 -6.96875 L 12.25 -16.1875 L 16.859375 -16.1875 L 10.703125 0 Z M 6.171875 0 "/></g></g></g><g fill="#ffffff" fill-opacity="1"><g transform="translate(113.097804, 30.72193)"><g><path d="M 0 -16.1875 L 4.828125 -16.1875 L 7.890625 -7.078125 C 8.148438 -6.285156 8.328125 -5.347656 8.421875 -4.265625 L 8.515625 -4.265625 C 8.617188 -5.265625 8.820312 -6.203125 9.125 -7.078125 L 12.125 -16.1875 L 16.859375 -16.1875 L 10.015625 2.0625 C 9.390625 3.757812 8.492188 5.023438 7.328125 5.859375 C 6.171875 6.703125 4.8125 7.125 3.25 7.125 C 2.488281 7.125 1.742188 7.039062 1.015625 6.875 L 1.015625 3.375 C 1.546875 3.5 2.125 3.5625 2.75 3.5625 C 3.53125 3.5625 4.210938 3.320312 4.796875 2.84375 C 5.378906 2.363281 5.835938 1.644531 6.171875 0.6875 L 6.421875 -0.109375 Z M 5.703125 -17.96875 L 5.703125 -18.359375 C 7.359375 -20.285156 8.488281 -21.734375 9.09375 -22.703125 L 14.046875 -22.703125 L 14.046875 -22.40625 C 13.546875 -21.90625 12.6875 -21.160156 11.46875 -20.171875 C 10.257812 -19.179688 9.316406 -18.445312 8.640625 -17.96875 Z M 5.703125 -17.96875 "/></g></g></g><g fill="#ffffff" fill-opacity="1"><g transform="translate(134.406123, 30.72193)"><g><path d="M 11.34375 -16.484375 C 11.945312 -16.484375 12.445312 -16.441406 12.84375 -16.359375 L 12.5 -12.21875 C 12.144531 -12.3125 11.710938 -12.359375 11.203125 -12.359375 C 9.796875 -12.359375 8.695312 -11.992188 7.90625 -11.265625 C 7.125 -10.546875 6.734375 -9.535156 6.734375 -8.234375 L 6.734375 0 L 2.3125 0 L 2.3125 -16.1875 L 5.65625 -16.1875 L 6.3125 -13.453125 L 6.53125 -13.453125 C 7.03125 -14.367188 7.707031 -15.101562 8.5625 -15.65625 C 9.414062 -16.207031 10.34375 -16.484375 11.34375 -16.484375 Z M 11.34375 -16.484375 "/></g></g></g><g fill="#ffffff" fill-opacity="1"><g transform="translate(152.313434, 30.72193)"><g><path d="M 5.828125 -8.125 C 5.828125 -6.519531 6.085938 -5.304688 6.609375 -4.484375 C 7.140625 -3.660156 8 -3.25 9.1875 -3.25 C 10.363281 -3.25 11.207031 -3.65625 11.71875 -4.46875 C 12.238281 -5.289062 12.5 -6.507812 12.5 -8.125 C 12.5 -9.71875 12.238281 -10.914062 11.71875 -11.71875 C 11.195312 -12.519531 10.34375 -12.921875 9.15625 -12.921875 C 7.976562 -12.921875 7.128906 -12.519531 6.609375 -11.71875 C 6.085938 -10.925781 5.828125 -9.726562 5.828125 -8.125 Z M 17.015625 -8.125 C 17.015625 -5.488281 16.320312 -3.425781 14.9375 -1.9375 C 13.550781 -0.445312 11.613281 0.296875 9.125 0.296875 C 7.570312 0.296875 6.203125 -0.0390625 5.015625 -0.71875 C 3.828125 -1.40625 2.914062 -2.382812 2.28125 -3.65625 C 1.644531 -4.9375 1.328125 -6.425781 1.328125 -8.125 C 1.328125 -10.757812 2.015625 -12.8125 3.390625 -14.28125 C 4.773438 -15.75 6.71875 -16.484375 9.21875 -16.484375 C 10.769531 -16.484375 12.140625 -16.144531 13.328125 -15.46875 C 14.515625 -14.789062 15.425781 -13.820312 16.0625 -12.5625 C 16.695312 -11.300781 17.015625 -9.820312 17.015625 -8.125 Z M 17.015625 -8.125 "/></g></g></g><g fill="#ffffff" fill-opacity="1"><g transform="translate(175.112399, 30.72193)"><g><path d="M 11.3125 -16.484375 C 13.226562 -16.484375 14.722656 -15.738281 15.796875 -14.25 C 16.878906 -12.757812 17.421875 -10.71875 17.421875 -8.125 C 17.421875 -5.445312 16.863281 -3.375 15.75 -1.90625 C 14.632812 -0.4375 13.117188 0.296875 11.203125 0.296875 C 9.296875 0.296875 7.804688 -0.394531 6.734375 -1.78125 L 6.421875 -1.78125 L 5.6875 0 L 2.3125 0 L 2.3125 -22.515625 L 6.734375 -22.515625 L 6.734375 -17.28125 C 6.734375 -16.613281 6.675781 -15.546875 6.5625 -14.078125 L 6.734375 -14.078125 C 7.765625 -15.679688 9.289062 -16.484375 11.3125 -16.484375 Z M 9.90625 -12.953125 C 8.8125 -12.953125 8.015625 -12.613281 7.515625 -11.9375 C 7.015625 -11.269531 6.753906 -10.164062 6.734375 -8.625 L 6.734375 -8.140625 C 6.734375 -6.410156 6.988281 -5.164062 7.5 -4.40625 C 8.019531 -3.65625 8.835938 -3.28125 9.953125 -3.28125 C 10.859375 -3.28125 11.578125 -3.695312 12.109375 -4.53125 C 12.648438 -5.375 12.921875 -6.585938 12.921875 -8.171875 C 12.921875 -9.765625 12.648438 -10.957031 12.109375 -11.75 C 11.566406 -12.550781 10.832031 -12.953125 9.90625 -12.953125 Z M 9.90625 -12.953125 "/></g></g></g><g fill="#ffffff" fill-opacity="1"><g transform="translate(198.31659, 30.72193)"><g><path d="M 12.59375 0 L 11.734375 -2.203125 L 11.625 -2.203125 C 10.875 -1.265625 10.101562 -0.613281 9.3125 -0.25 C 8.53125 0.113281 7.507812 0.296875 6.25 0.296875 C 4.695312 0.296875 3.472656 -0.144531 2.578125 -1.03125 C 1.691406 -1.925781 1.25 -3.191406 1.25 -4.828125 C 1.25 -6.546875 1.847656 -7.8125 3.046875 -8.625 C 4.242188 -9.445312 6.054688 -9.898438 8.484375 -9.984375 L 11.28125 -10.078125 L 11.28125 -10.78125 C 11.28125 -12.425781 10.441406 -13.25 8.765625 -13.25 C 7.472656 -13.25 5.957031 -12.859375 4.21875 -12.078125 L 2.75 -15.046875 C 4.613281 -16.023438 6.675781 -16.515625 8.9375 -16.515625 C 11.113281 -16.515625 12.78125 -16.039062 13.9375 -15.09375 C 15.09375 -14.144531 15.671875 -12.707031 15.671875 -10.78125 L 15.671875 0 Z M 11.28125 -7.5 L 9.578125 -7.4375 C 8.296875 -7.394531 7.34375 -7.160156 6.71875 -6.734375 C 6.09375 -6.316406 5.78125 -5.675781 5.78125 -4.8125 C 5.78125 -3.5625 6.492188 -2.9375 7.921875 -2.9375 C 8.941406 -2.9375 9.753906 -3.226562 10.359375 -3.8125 C 10.972656 -4.40625 11.28125 -5.191406 11.28125 -6.171875 Z M 11.28125 -7.5 "/></g></g></g></g></g></svg>